<svg id="Layer_1" data-name="Layer 1" xmlns="http://www.w3.org/2000/svg" viewBox="0 0 360 84"><defs><style>.cls-1{fill:#fff;}.cls-2{isolation:isolate;}</style></defs><g id="Background"><path class="cls-1" d="M87.27,69H11.85V15.74H87.26Q87.28,42.38,87.27,69Zm-38-1.87h30.2c4.65,0,5.45-.67,5.3-5.29-.18-5.18-.75-10.35-.86-15.53-.05-2.26.87-4.54.92-6.82.12-5.72,0-11.44,0-17.17,0-3.29-1-4.26-4.37-4.26q-31.08,0-62.15,0c-3.42,0-4.35,1-4.36,4.52q0,20,0,40.07c0,3.52.92,4.46,4.39,4.47Q33.75,67.18,49.23,67.16Z"/><path d="M49.23,67.16q-15.48,0-31,0c-3.47,0-4.39-1-4.39-4.47q0-20,0-40.07c0-3.53.94-4.52,4.36-4.52q31.08,0,62.15,0c3.36,0,4.34,1,4.37,4.26.06,5.73.16,11.45,0,17.17-.05,2.28-1,4.56-.92,6.82.11,5.18.68,10.35.86,15.53.15,4.62-.65,5.29-5.3,5.29ZM33.51,20.77h0l-2.33.43.72-2.12c-4.64,0-9.13,0-13.62,0-2.86,0-3.36.51-3.37,3.33q0,20.16,0,40.32c0,3,.48,3.4,3.54,3.41q17.36,0,34.69,0c2.63,0,5.12-3.15,4.64-5.92l-2.52.94A20.23,20.23,0,0,0,52.71,58c-1.43-1.18-2-3.44-5-2.66-2.2.58-4.74-1.71-7.32-.34-.14.08-.53-.31-.8-.48a31.38,31.38,0,0,0-4.29-2.65,31.44,31.44,0,0,0-4.39-1c-2.41-.63-3.84-4.37-2.24-6.23A40.51,40.51,0,0,1,35.38,38c5-3.58,10.91-5.18,17-5.75,2.58-.24,5.18-.33,7.77-.49l.33-.8-5.1-4.66,1-.91-2.87-.24c.36-.68,1-1.33,1-2,0-2.45-1.71-4-4.67-4C44.42,19.15,38.79,18.31,33.51,20.77ZM60.28,66.12c7.31,0,14.27.07,21.22-.1.75,0,2-1.3,2.1-2.12A51.86,51.86,0,0,0,83.7,57H74c2.2-4.07,3.87-8,6.26-11.4,3.09-4.39,3.92-9,3.54-14.2-.24-3.31.07-6.65-.14-10a3.35,3.35,0,0,0-1.79-2.2c-.61-.29-2.16,0-2.37.51a52.27,52.27,0,0,0-1.94,6.08A14.53,14.53,0,0,0,79.37,25,17.79,17.79,0,0,0,81,23.5c.24.62.47.93.4,1.06-1.19,2-3.32,3.52-3.14,6.31,0,.35-1.58.82-2.93,1.47a34.93,34.93,0,0,1,4,1.66A2.82,2.82,0,0,1,80,35.58c-1.83,1-1.56,3.12-2.46,4.49C74.83,44.19,72.46,48.58,69,52.2a26.14,26.14,0,0,0-2.71,4.14l.4.29L68.4,55l.6.49A115.69,115.69,0,0,1,60.28,66.12Zm-6-17.1c2.63-1.11,5.23-2,7.65-3.31a1.9,1.9,0,0,0,.47-3.3,29,29,0,0,0-3.82-2.48Zm-7.33.46.17-.73c-1.27-1.46-2.61-2.86-3.79-4.4-1-1.27-1.76-.93-2.54.07a26.88,26.88,0,0,0-1.43,2.38ZM60.44,63.57a16.7,16.7,0,0,0,1.72-2A26.67,26.67,0,0,0,63.47,59l-.58-.23-.82,1.38L61.75,60l.41-2.14-.79-.14Z"/><path class="cls-1" d="M33.51,20.77c5.28-2.46,10.91-1.62,16.43-1.65,3,0,4.72,1.54,4.67,4,0,.66-.66,1.31-1,2l2.87.24-1,.91,5.1,4.66-.33.8c-2.59.16-5.19.25-7.77.49-6.13.57-12,2.17-17,5.75a40.51,40.51,0,0,0-6.7,6.71c-1.6,1.86-.17,5.6,2.24,6.23a31.44,31.44,0,0,1,4.39,1,31.38,31.38,0,0,1,4.29,2.65c.27.17.66.56.8.48,2.58-1.37,5.12.92,7.32.34,3-.78,3.56,1.48,5,2.66a20.23,20.23,0,0,1,2.55,3.17l2.52-.94c.48,2.77-2,5.91-4.64,5.92q-17.34,0-34.69,0c-3.06,0-3.54-.46-3.54-3.41q0-20.16,0-40.32c0-2.82.51-3.32,3.37-3.33,4.49,0,9,0,13.62,0l-.72,2.12,2.33-.43c-.25.46-.46,1.3-.74,1.32-1.71.12-3.42.06-5.14.06,0,1,2.5,2,.1,3.38-1.22.69-3.87,1.11-1.69,3.59.07.08-.3.55-.46.83-.79,1.41-1.68,2.77-2.32,4.24a27.72,27.72,0,0,0-1.07,3.72l2-.32-.5-.47c.53-1,1.05-2.05,1.6-3.07a12.73,12.73,0,0,0,.89-1.49c.75-2.06,1.31-4.2,2.21-6.18.38-.84,1.4-1.43,2.21-2.05C31.91,23.38,34.26,23.33,33.51,20.77Z"/><path class="cls-1" d="M60.28,66.12A115.69,115.69,0,0,0,69,55.53L68.4,55l-1.73,1.59-.4-.29A26.14,26.14,0,0,1,69,52.2c3.48-3.62,5.85-8,8.59-12.13.9-1.37.63-3.49,2.46-4.49A2.82,2.82,0,0,0,79.31,34a34.93,34.93,0,0,0-4-1.66c1.35-.65,3-1.12,2.93-1.47-.18-2.79,2-4.29,3.14-6.31.07-.13-.16-.44-.4-1.06A17.79,17.79,0,0,1,79.37,25a14.53,14.53,0,0,1-1.85.91,52.27,52.27,0,0,1,1.94-6.08c.21-.47,1.76-.8,2.37-.51a3.35,3.35,0,0,1,1.79,2.2c.21,3.3-.1,6.64.14,10,.38,5.16-.45,9.81-3.54,14.2C77.83,49,76.16,53,74,57H83.7a51.86,51.86,0,0,1-.1,6.88c-.11.82-1.35,2.11-2.1,2.12C74.55,66.19,67.59,66.12,60.28,66.12Z"/><path class="cls-1" d="M54.26,49l4.3-9.09a29,29,0,0,1,3.82,2.48,1.9,1.9,0,0,1-.47,3.3C59.49,47,56.89,47.91,54.26,49Z"/><path class="cls-1" d="M46.93,49.48,39.34,46.8a26.88,26.88,0,0,1,1.43-2.38c.78-1,1.57-1.34,2.54-.07,1.18,1.54,2.52,2.94,3.79,4.4Z"/><path class="cls-1" d="M60.44,63.57l.93-5.87.79.14L61.75,60l.32.16.82-1.38.58.23a26.67,26.67,0,0,1-1.31,2.62A16.7,16.7,0,0,1,60.44,63.57Z"/><path d="M33.51,20.77c.75,2.56-1.6,2.61-2.86,3.57-.81.62-1.83,1.21-2.21,2.05-.9,2-1.46,4.12-2.21,6.18a12.73,12.73,0,0,1-.89,1.49c-.55,1-1.07,2-1.6,3.07l.5.47-2,.32a27.72,27.72,0,0,1,1.07-3.72c.64-1.47,1.53-2.83,2.32-4.24.16-.28.53-.75.46-.83-2.18-2.48.47-2.9,1.69-3.59,2.4-1.38-.06-2.37-.1-3.38,1.72,0,3.43.06,5.14-.06.28,0,.49-.86.74-1.32Z"/></g><g class="cls-2"><g class="cls-2"><path d="M113.78,33.32a1.85,1.85,0,0,1,.22,1,3.27,3.27,0,0,1-.44,1.66l-10.93,18.9a3.38,3.38,0,0,1-1.21,1.23,2.89,2.89,0,0,1-1.5.51H75.59c-.68,0-1-.29-1-.87a1.81,1.81,0,0,1,.25-.87l9-15.64A3.38,3.38,0,0,1,85.09,38a2.93,2.93,0,0,1,1.54-.51H98.79a2.86,2.86,0,0,0,1.5-.51,3.3,3.3,0,0,0,1.2-1.24l5.81-10c.36-.62.74-.94,1.12-.94a.65.65,0,0,1,.55.33ZM98.51,41a1.81,1.81,0,0,0,.25-.87c0-.58-.33-.87-1-.87a2.78,2.78,0,0,0-1.51.51A3.8,3.8,0,0,0,95,41L88,53.12a1.9,1.9,0,0,0-.26.87c0,.58.33.87,1,.87a2.93,2.93,0,0,0,1.54-.51,3.31,3.31,0,0,0,1.21-1.23Z"/></g><g class="cls-2"><path d="M140.28,37.48c.65,0,1,.29,1,.87a1.83,1.83,0,0,1-.26.87L132,54.86a3.38,3.38,0,0,1-1.21,1.23,2.86,2.86,0,0,1-1.5.51H104.91c-.67,0-1-.29-1-.87a1.81,1.81,0,0,1,.25-.87l4-7a3.8,3.8,0,0,1,1.23-1.23,2.84,2.84,0,0,1,1.52-.51h12.16a2.91,2.91,0,0,0,1.53-.5,3.74,3.74,0,0,0,1.24-1.23l2-3.47a2.06,2.06,0,0,0,.23-.87c0-.59-.33-.88-1-.88a2.75,2.75,0,0,0-1.5.51A3.79,3.79,0,0,0,124.38,41l-1,1.74a3.32,3.32,0,0,1-1.22,1.22,2.84,2.84,0,0,1-1.5.5h-8.71q-1,0-1-.87a1.93,1.93,0,0,1,.25-.86l2-3.48A3.41,3.41,0,0,1,114.42,38a2.9,2.9,0,0,1,1.53-.51ZM122.82,49.64a1.72,1.72,0,0,0,.26-.86c0-.58-.33-.87-1-.87a2.84,2.84,0,0,0-1.52.51,3.25,3.25,0,0,0-1.19,1.23l-2,3.47a1.84,1.84,0,0,0-.25.87c0,.58.32.87,1,.87a2.9,2.9,0,0,0,1.54-.51,3.27,3.27,0,0,0,1.22-1.23Z"/></g><g class="cls-2"><path d="M169.6,37.48c.65,0,1,.29,1,.87a1.81,1.81,0,0,1-.25.87l-9.05,15.64a3.41,3.41,0,0,1-1.22,1.23,2.86,2.86,0,0,1-1.5.51h-8.69c-.67,0-1-.29-1-.87a1.81,1.81,0,0,1,.25-.87l8-13.9a1.87,1.87,0,0,0,.25-.87c0-.58-.32-.87-1-.87a2.81,2.81,0,0,0-1.52.51A3.8,3.8,0,0,0,153.68,41l-8,13.9a3.38,3.38,0,0,1-1.21,1.23,2.92,2.92,0,0,1-1.5.51h-8.7c-.67,0-1-.29-1-.87a1.93,1.93,0,0,1,.25-.87l9.05-15.64A3.41,3.41,0,0,1,143.74,38a2.9,2.9,0,0,1,1.54-.51Z"/></g><path d="M199.29,37.48c.65,0,1,.29,1,.87a1.83,1.83,0,0,1-.26.87l-9,15.64a3.38,3.38,0,0,1-1.21,1.23,2.89,2.89,0,0,1-1.5.51H163.92c-.68,0-1-.29-1-.87a1.81,1.81,0,0,1,.25-.87l9.05-15.64A3.38,3.38,0,0,1,173.42,38a2.93,2.93,0,0,1,1.54-.51ZM186.83,41a1.9,1.9,0,0,0,.26-.87c0-.58-.33-.87-1-.87a2.84,2.84,0,0,0-1.52.51A3.8,3.8,0,0,0,183.36,41l-7,12.16a1.9,1.9,0,0,0-.26.87c0,.58.33.87,1,.87a2.93,2.93,0,0,0,1.54-.51,3.38,3.38,0,0,0,1.21-1.23Z"/><path d="M229.33,37.48c.66,0,1,.29,1,.87a1.81,1.81,0,0,1-.25.87L221,54.86a3.46,3.46,0,0,1-1.21,1.23,2.92,2.92,0,0,1-1.51.51h-8.68q-1,0-1-.87a1.93,1.93,0,0,1,.25-.87l8-13.9a1.87,1.87,0,0,0,.25-.87c0-.58-.32-.87-1-.87a2.84,2.84,0,0,0-1.52.51A3.8,3.8,0,0,0,213.41,41l-8,13.9a3.38,3.38,0,0,1-1.21,1.23,2.86,2.86,0,0,1-1.5.51H194q-1,0-1-.87a1.83,1.83,0,0,1,.26-.87L210,25.75c.36-.62.74-.94,1.12-.94a.65.65,0,0,1,.55.33l4.81,8.18a1.85,1.85,0,0,1,.22,1A3.27,3.27,0,0,1,216.3,36a1.39,1.39,0,0,0-.22.69c0,.56.37.83,1.09.83Z"/><path d="M223.9,56.6c-.67,0-1-.29-1-.87a1.81,1.81,0,0,1,.25-.87l4-7a3.8,3.8,0,0,1,1.23-1.23,2.84,2.84,0,0,1,1.52-.51h8.69q1,0,1,.87a1.72,1.72,0,0,1-.29.87l-4,7a3.41,3.41,0,0,1-1.22,1.23,2.86,2.86,0,0,1-1.5.51Z"/><path d="M260.5,44.43c-.67,0-1-.29-1-.87a1.81,1.81,0,0,1,.25-.86l1-1.74a1.87,1.87,0,0,0,.25-.87c0-.58-.33-.87-1-.87a2.84,2.84,0,0,0-1.52.51A3.77,3.77,0,0,0,257.29,41l-7,12.16A1.9,1.9,0,0,0,250,54c0,.58.33.87,1,.87a2.93,2.93,0,0,0,1.54-.51,3.38,3.38,0,0,0,1.21-1.23l3-5.21A3.8,3.8,0,0,1,258,46.68a2.84,2.84,0,0,1,1.52-.51h8.69c.67,0,1,.29,1,.87a1.72,1.72,0,0,1-.29.87l-4,7a3.38,3.38,0,0,1-1.21,1.23,2.86,2.86,0,0,1-1.5.51H237.84c-.67,0-1-.29-1-.87a1.81,1.81,0,0,1,.25-.87l9-15.64A3.46,3.46,0,0,1,247.34,38a3,3,0,0,1,1.54-.51h24.33c.65,0,1,.29,1,.87a1.83,1.83,0,0,1-.26.87l-2,3.48a3.41,3.41,0,0,1-1.22,1.23,2.93,2.93,0,0,1-1.5.5Z"/><path d="M302.53,37.48c.65,0,1,.29,1,.87a1.81,1.81,0,0,1-.25.87l-9.05,15.64A3.41,3.41,0,0,1,293,56.09a2.86,2.86,0,0,1-1.5.51H267.16c-.67,0-1-.29-1-.87a1.93,1.93,0,0,1,.25-.87l9.05-15.64A3.41,3.41,0,0,1,276.67,38a2.9,2.9,0,0,1,1.54-.51ZM290.08,41a1.87,1.87,0,0,0,.25-.87c0-.58-.32-.87-1-.87a2.81,2.81,0,0,0-1.52.51A3.8,3.8,0,0,0,286.61,41l-7,12.16a1.79,1.79,0,0,0-.26.87c0,.58.32.87,1,.87a2.9,2.9,0,0,0,1.53-.51,3.41,3.41,0,0,0,1.22-1.23Z"/><path d="M335.22,41a1.9,1.9,0,0,0,.26-.87c0-.58-.33-.87-1-.87a2.84,2.84,0,0,0-1.52.51A3.8,3.8,0,0,0,331.75,41l-8,13.92a3.37,3.37,0,0,1-1.22,1.21,2.86,2.86,0,0,1-1.5.51h-8.71q-1,0-1-.87a1.93,1.93,0,0,1,.25-.87l8-13.9a1.9,1.9,0,0,0,.26-.87c0-.58-.33-.87-1-.87a2.84,2.84,0,0,0-1.52.51A3.8,3.8,0,0,0,316.11,41l-8,13.9a3.46,3.46,0,0,1-1.21,1.23,2.89,2.89,0,0,1-1.5.51h-8.69q-1,0-1-.87a1.83,1.83,0,0,1,.26-.87l9-15.64A3.38,3.38,0,0,1,306.17,38a2.93,2.93,0,0,1,1.54-.51h40c.66,0,1,.29,1,.87a1.81,1.81,0,0,1-.25.87L331.6,68.33c-.36.62-.75.94-1.16.94a.56.56,0,0,1-.5-.36l-4.82-8.15a2.16,2.16,0,0,1-.22-1,3.08,3.08,0,0,1,.44-1.63Z"/></g></svg>