<svg id="Layer_1" data-name="Layer 1" xmlns="http://www.w3.org/2000/svg" viewBox="0 0 335.1 50.9"><defs><style>.cls-1{fill:#fff;}.cls-2{isolation:isolate;}</style></defs><path d="M49.2,67.2h-31c-3.5,0-4.4-.9-4.4-4.5V22.6c0-3.5.9-4.5,4.4-4.5H80.4c3.4,0,4.3,1,4.4,4.3.1,5.7.2,11.4,0,17.2,0,2.3-1,4.6-.9,6.8.1,5.2.7,10.4.9,15.5.2,4.6-.6,5.3-5.3,5.3ZM33.5,20.8h0c-.7.1-1.4.3-2.3.4.3-.8.5-1.4.7-2.1H18.3c-2.9,0-3.4.5-3.4,3.3V62.7c0,2.9.5,3.4,3.5,3.4H53.1c2.6,0,5.1-3.2,4.6-5.9-.9.3-1.8.7-2.5.9a22.29,22.29,0,0,0-2.5-3.2c-1.4-1.2-2-3.4-5-2.7-2.2.6-4.7-1.7-7.3-.3-.1.1-.5-.3-.8-.5a27.34,27.34,0,0,0-4.3-2.6,31.29,31.29,0,0,0-4.4-1c-2.4-.6-3.8-4.4-2.2-6.2a42.45,42.45,0,0,1,6.7-6.7c5-3.6,10.9-5.2,17-5.7,2.6-.2,5.2-.3,7.8-.5.1-.3.2-.5.3-.8-1.7-1.6-3.4-3.1-5.1-4.7.1-.1.4-.4,1-.9-1.3-.1-2.3-.2-2.9-.2.4-.7,1-1.3,1-2,0-2.4-1.7-4-4.7-4C44.4,19.2,38.8,18.3,33.5,20.8ZM60.3,66.1c7.3,0,14.3.1,21.2-.1.7,0,2-1.3,2.1-2.1a52.16,52.16,0,0,0,.1-6.9H74c2.2-4.1,3.9-8,6.3-11.4,3.1-4.4,3.9-9,3.5-14.2-.2-3.3.1-6.6-.1-9.9,0-.8-1-1.8-1.8-2.2-.6-.3-2.2,0-2.4.5a49.53,49.53,0,0,0-1.9,6.1c.8-.4,1.4-.6,1.9-.9a20.59,20.59,0,0,0,1.6-1.5c.2.6.5.9.4,1.1-1.2,2-3.3,3.5-3.1,6.3,0,.4-1.6.8-2.9,1.5a26.63,26.63,0,0,1,4,1.7,2.69,2.69,0,0,1,.7,1.6c-1.8,1-1.6,3.1-2.5,4.5-2.7,4.1-5.1,8.5-8.6,12.1a29,29,0,0,0-2.7,4.1c.1.1.3.2.4.3.6-.5,1.1-1.1,1.7-1.6.2.2.4.3.6.5C66.5,59.2,63.5,62.4,60.3,66.1ZM54.3,49c2.6-1.1,5.2-2,7.6-3.3,1.3-.7,1.8-2.2.5-3.3s-2.7-1.7-3.8-2.5C57.1,43.1,55.8,45.8,54.3,49Zm-7.4.5c.1-.2.1-.5.2-.7-1.3-1.5-2.6-2.9-3.8-4.4-1-1.3-1.8-.9-2.5.1-.4.6-.7,1.2-1.4,2.4C42,47.7,44.5,48.6,46.9,49.5ZM60.4,63.6a9.53,9.53,0,0,0,1.7-2A21,21,0,0,0,63.4,59a1.42,1.42,0,0,0-.6-.2c-.3.5-.5.9-.8,1.4a.22.22,0,0,0-.2-.2c.1-.7.3-1.4.4-2.1-.3,0-.5-.1-.8-.1C61.1,59.5,60.8,61.3,60.4,63.6Z" transform="translate(-13.8 -18.1)"/><path class="cls-1" d="M60.4,63.6c.4-2.3.6-4.1.9-5.9.3,0,.5.1.8.1-.1.7-.3,1.4-.4,2.1.1.1.2.1.3.2.3-.5.5-.9.8-1.4a1.42,1.42,0,0,0,.6.2,21,21,0,0,1-1.3,2.6A9.15,9.15,0,0,1,60.4,63.6Z" transform="translate(-13.8 -18.1)"/><path d="M33.5,20.8c.8,2.6-1.6,2.6-2.9,3.6a7.13,7.13,0,0,0-2.2,2,65,65,0,0,0-2.2,6.2,11.91,11.91,0,0,1-.9,1.5c-.5,1-1.1,2-1.6,3.1l.5.5c-.6.1-1.2.2-2.1.3a32.49,32.49,0,0,1,1.1-3.7,34.25,34.25,0,0,1,2.3-4.2c.2-.3.5-.8.5-.8-2.2-2.5.5-2.9,1.7-3.6,2.4-1.4-.1-2.4-.1-3.4a43.41,43.41,0,0,0,5.1-.1c.3-.1.6-1,.8-1.4Z" transform="translate(-13.8 -18.1)"/><g class="cls-2"><path d="M113.8,33.3a2.51,2.51,0,0,1,.2,1,3.29,3.29,0,0,1-.4,1.7L102.7,54.9a3.45,3.45,0,0,1-1.2,1.2,3,3,0,0,1-1.5.5H75.7c-.7,0-1-.3-1-.9a1.61,1.61,0,0,1,.3-.9l9.1-15.6A3.45,3.45,0,0,1,85.3,38a3.32,3.32,0,0,1,1.5-.5H99a3,3,0,0,0,1.5-.5,4.56,4.56,0,0,0,1.2-1.2l5.8-10c.4-.6.7-.9,1.1-.9a.55.55,0,0,1,.5.3ZM98.5,41a1.49,1.49,0,0,0,.2-.9c0-.6-.3-.9-1-.9a3,3,0,0,0-1.5.5A4.56,4.56,0,0,0,95,40.9L88,53.1a1.61,1.61,0,0,0-.3.9c0,.6.3.9,1,.9a3,3,0,0,0,1.5-.5,3.45,3.45,0,0,0,1.2-1.2Z" transform="translate(-13.8 -18.1)"/></g><g class="cls-2"><path d="M140.3,37.5c.7,0,1,.3,1,.9a1.61,1.61,0,0,1-.3.9l-9,15.6a3.45,3.45,0,0,1-1.2,1.2,3,3,0,0,1-1.5.5H105c-.7,0-1-.3-1-.9a1.61,1.61,0,0,1,.3-.9l4-7a3.45,3.45,0,0,1,1.2-1.2,3,3,0,0,1,1.5-.5h12.2a3,3,0,0,0,1.5-.5,3.45,3.45,0,0,0,1.2-1.2l2-3.5a1.49,1.49,0,0,0,.2-.9c0-.6-.3-.9-1-.9a3,3,0,0,0-1.5.5,4.56,4.56,0,0,0-1.2,1.2l-1,1.7a3.45,3.45,0,0,1-1.2,1.2,3,3,0,0,1-1.5.5H112c-.7,0-1-.3-1-.9a1.61,1.61,0,0,1,.3-.9l2-3.5a3.45,3.45,0,0,1,1.2-1.2,3.32,3.32,0,0,1,1.5-.5h24.3ZM122.8,49.6a1.61,1.61,0,0,0,.3-.9c0-.6-.3-.9-1-.9a3,3,0,0,0-1.5.5,3.45,3.45,0,0,0-1.2,1.2l-2,3.5a1.61,1.61,0,0,0-.3.9c0,.6.3.9,1,.9a3,3,0,0,0,1.5-.5,3.45,3.45,0,0,0,1.2-1.2Z" transform="translate(-13.8 -18.1)"/></g><g class="cls-2"><path d="M169.6,37.5c.7,0,1,.3,1,.9a1.61,1.61,0,0,1-.3.9l-9.1,15.6a3.45,3.45,0,0,1-1.2,1.2,3,3,0,0,1-1.5.5h-8.7c-.7,0-1-.3-1-.9a1.61,1.61,0,0,1,.3-.9l8-13.9a1.61,1.61,0,0,0,.3-.9c0-.6-.3-.9-1-.9a3,3,0,0,0-1.5.5,3.45,3.45,0,0,0-1.2,1.2l-8,13.9a3.45,3.45,0,0,1-1.2,1.2,3,3,0,0,1-1.5.5h-8.7c-.7,0-1-.3-1-.9a1.61,1.61,0,0,1,.3-.9L142.7,39a3.45,3.45,0,0,1,1.2-1.2,3.32,3.32,0,0,1,1.5-.5h24.2Z" transform="translate(-13.8 -18.1)"/></g><path d="M199.3,37.5c.7,0,1,.3,1,.9a1.61,1.61,0,0,1-.3.9l-9,15.6a3.45,3.45,0,0,1-1.2,1.2,3,3,0,0,1-1.5.5H164c-.7,0-1-.3-1-.9a1.61,1.61,0,0,1,.3-.9l9.1-15.6a3.45,3.45,0,0,1,1.2-1.2,3.32,3.32,0,0,1,1.5-.5ZM186.8,41a1.61,1.61,0,0,0,.3-.9c0-.6-.3-.9-1-.9a3,3,0,0,0-1.5.5,3.45,3.45,0,0,0-1.2,1.2l-7,12.2a1.61,1.61,0,0,0-.3.9c0,.6.3.9,1,.9a3,3,0,0,0,1.5-.5,3.45,3.45,0,0,0,1.2-1.2Z" transform="translate(-13.8 -18.1)"/><path d="M229.3,37.5c.7,0,1,.3,1,.9a1.61,1.61,0,0,1-.3.9l-9,15.6a3.45,3.45,0,0,1-1.2,1.2,3,3,0,0,1-1.5.5h-8.7c-.7,0-1-.3-1-.9a1.61,1.61,0,0,1,.3-.9l8-13.9a1.61,1.61,0,0,0,.3-.9c0-.6-.3-.9-1-.9a3,3,0,0,0-1.5.5,3.45,3.45,0,0,0-1.2,1.2l-8,13.9a3.45,3.45,0,0,1-1.2,1.2,3,3,0,0,1-1.5.5H194c-.7,0-1-.3-1-.9a1.61,1.61,0,0,1,.3-.9l16.8-29.1c.4-.6.7-.9,1.1-.9a.55.55,0,0,1,.5.3l4.8,8.2a2.51,2.51,0,0,1,.2,1,3.29,3.29,0,0,1-.4,1.7,1.85,1.85,0,0,0-.2.7c0,.6.4.8,1.1.8h12.1Z" transform="translate(-13.8 -18.1)"/><path d="M223.9,56.6c-.7,0-1-.3-1-.9a1.61,1.61,0,0,1,.3-.9l4-7a3.45,3.45,0,0,1,1.2-1.2,3,3,0,0,1,1.5-.5h8.7c.7,0,1,.3,1,.9a1.61,1.61,0,0,1-.3.9l-4,7a3.45,3.45,0,0,1-1.2,1.2,3,3,0,0,1-1.5.5Z" transform="translate(-13.8 -18.1)"/><path d="M260.5,44.4c-.7,0-1-.3-1-.9a1.61,1.61,0,0,1,.3-.9l1-1.7a1.61,1.61,0,0,0,.3-.9c0-.6-.3-.9-1-.9a3,3,0,0,0-1.5.5,3.45,3.45,0,0,0-1.2,1.2l-7,12.2a1.61,1.61,0,0,0-.3.9c0,.6.3.9,1,.9a3,3,0,0,0,1.5-.5,3.45,3.45,0,0,0,1.2-1.2l3-5.2a3.45,3.45,0,0,1,1.2-1.2,3,3,0,0,1,1.5-.5h8.7c.7,0,1,.3,1,.9a1.61,1.61,0,0,1-.3.9l-4,7a3.45,3.45,0,0,1-1.2,1.2,3,3,0,0,1-1.5.5H237.9c-.7,0-1-.3-1-.9a1.61,1.61,0,0,1,.3-.9l9.1-15.6a3.45,3.45,0,0,1,1.2-1.2,3.32,3.32,0,0,1,1.5-.5h24.3c.7,0,1,.3,1,.9a1.61,1.61,0,0,1-.3.9l-2,3.5a3.45,3.45,0,0,1-1.2,1.2,3,3,0,0,1-1.5.5h-8.8Z" transform="translate(-13.8 -18.1)"/><path d="M302.5,37.5c.7,0,1,.3,1,.9a1.61,1.61,0,0,1-.3.9l-9,15.6a3.45,3.45,0,0,1-1.2,1.2,3,3,0,0,1-1.5.5H267.2c-.7,0-1-.3-1-.9a1.61,1.61,0,0,1,.3-.9l9-15.6a3.45,3.45,0,0,1,1.2-1.2,3.32,3.32,0,0,1,1.5-.5ZM290.1,41a1.61,1.61,0,0,0,.3-.9c0-.6-.3-.9-1-.9a3,3,0,0,0-1.5.5,3.45,3.45,0,0,0-1.2,1.2l-7,12.2a1.61,1.61,0,0,0-.3.9c0,.6.3.9,1,.9a3,3,0,0,0,1.5-.5,3.45,3.45,0,0,0,1.2-1.2Z" transform="translate(-13.8 -18.1)"/><path d="M335.2,41a1.61,1.61,0,0,0,.3-.9c0-.6-.3-.9-1-.9a3,3,0,0,0-1.5.5,3.45,3.45,0,0,0-1.2,1.2l-8,13.9a3.45,3.45,0,0,1-1.2,1.2,3,3,0,0,1-1.5.5h-8.7c-.7,0-1-.3-1-.9a2.92,2.92,0,0,1,.2-.9l8-13.9a1.61,1.61,0,0,0,.3-.9c0-.6-.3-.9-1-.9a3,3,0,0,0-1.5.5,3.45,3.45,0,0,0-1.2,1.2l-8,13.9a3.45,3.45,0,0,1-1.2,1.2,3,3,0,0,1-1.5.5h-8.7c-.7,0-1-.3-1-.9a1.61,1.61,0,0,1,.3-.9l9.1-15.6a3.45,3.45,0,0,1,1.2-1.2,3.32,3.32,0,0,1,1.5-.5h40c.7,0,1,.3,1,.9a1.61,1.61,0,0,1-.3.9L331.8,68.1c-.4.6-.7.9-1.2.9a.51.51,0,0,1-.5-.4l-4.8-8.1a3,3,0,0,1,.2-2.6Z" transform="translate(-13.8 -18.1)"/></svg>